<svg version="1.1" xmlns="http://www.w3.org/2000/svg" xmlns:xlink="http://www.w3.org/1999/xlink" width="486.01762" height="111.42144" viewBox="0,0,486.01762,111.42144"><g transform="translate(-2.98238,-143)"><g data-paper-data="{&quot;isPaintingLayer&quot;:true}" fill-rule="evenodd" stroke="none" stroke-width="1" stroke-linecap="butt" stroke-linejoin="miter" stroke-miterlimit="10" stroke-dasharray="" stroke-dashoffset="0" style="mix-blend-mode: normal"><path d="M77,145c-1.3799,0.462 -2.0466,1.462 -2,3c0.3457,1.349 0.679,2.683 1,4c-3.8686,-0.371 -5.8686,-2.537 -6,-6.5c0.1667,-1.5 1,-2.333 2.5,-2.5c1.7275,0.399 3.2275,1.066 4.5,2z" fill="#fd3a31"/><path d="M77,145c2.554,1.106 5.2206,1.939 8,2.5c1.4423,0.377 2.4423,1.21 3,2.5c-2.9248,-1.139 -5.9248,-1.639 -9,-1.5c-1.2279,1.49 -1.2279,2.99 0,4.5c-1.109,-0.057 -2.109,-0.39 -3,-1c-0.321,-1.317 -0.6543,-2.651 -1,-4c-0.0466,-1.538 0.6201,-2.538 2,-3z" fill="#6dd5dc"/><path d="M88,150c5.268,4.115 8.768,9.448 10.5,16c0.87,8.397 0.537,16.73 -1,25c-6.088,12.553 -12.7548,24.887 -20,37c-3.7873,5.456 -7.954,10.623 -12.5,15.5c-6.7268,2.643 -12.3935,1.143 -17,-4.5c0,-0.333 0,-0.667 0,-1c0.1653,-3.682 -0.0014,-7.348 -0.5,-11c-1.159,-1.066 -1.9924,-0.733 -2.5,1c-1.6667,1 -3,2.333 -4,4c-7.593,9.031 -17.2597,12.197 -29,9.5c-0.7524,-0.671 -1.0858,-1.504 -1,-2.5c-0.1657,-4.346 0.001,-8.679 0.5,-13c3.6667,-13 7.3333,-26 11,-39c1.2883,-5.273 2.1216,-10.606 2.5,-16c2,0 4,0 6,0c1.0155,9.087 0.1822,18.087 -2.5,27c-0.499,4.321 -0.6657,8.654 -0.5,13c-1.2,3.469 -1.2,6.802 0,10c-1.4361,3.07 -0.4361,4.237 3,3.5c10.2302,-13.959 18.2302,-29.126 24,-45.5c3.096,-2.291 6.4293,-2.625 10,-1c1.2206,0.528 2.3873,1.195 3.5,2c0.6667,3.333 0.6667,6.667 0,10c-3.118,7.147 -5.618,14.48 -7.5,22c-1.7913,4.833 -2.7913,9.833 -3,15c-1.4664,2.135 -1.2998,4.135 0.5,6c10.4671,-12.264 17.8004,-26.264 22,-42c1.8167,-6.9 2.9834,-13.9 3.5,-21c0,-2 0,-4 0,-6c0,-2.667 0,-5.333 0,-8c-1,0 -2,0 -3,0c-1.4063,-0.473 -2.073,-1.473 -2,-3c-1.2279,-1.51 -1.2279,-3.01 0,-4.5c3.0752,-0.139 6.0752,0.361 9,1.5z" fill="#3cb6fe"/><path d="M489,224c0,2.333 0,4.667 0,7c-4.598,5.097 -9.932,9.264 -16,12.5c-5.064,3.389 -9.897,3.222 -14.5,-0.5c-2.917,-4.166 -5.584,-8.499 -8,-13c-1.753,2.505 -3.253,5.171 -4.5,8c-6.119,3.618 -10.619,2.285 -13.5,-4c-0.333,-4.667 -0.667,-9.333 -1,-14c-6.761,12.798 -17.261,18.631 -31.5,17.5c-9.13,-1.793 -13.963,-7.293 -14.5,-16.5c-7.255,7.198 -14.755,7.531 -22.5,1c-3.178,2.339 -6.678,4.006 -10.5,5c-10.019,-2.315 -13.685,-8.315 -11,-18c3.894,-6.948 9.06,-12.782 15.5,-17.5c4.238,-0.823 8.238,-0.156 12,2c2.587,1.525 3.42,3.692 2.5,6.5c-6.94,4.937 -12.44,11.103 -16.5,18.5c0.35,1.257 1.017,1.591 2,1c4.137,-4.488 8.137,-8.988 12,-13.5c1.529,0.029 2.696,0.696 3.5,2c0.296,3.59 -0.204,7.09 -1.5,10.5c0.167,1.167 0.333,2.333 0.5,3.5c5.04,0.664 9.374,-1.003 13,-5c2.828,-10.487 8.328,-19.321 16.5,-26.5c5.019,-2.92 10.019,-3.087 15,-0.5c1.962,7.26 1.296,14.26 -2,21c-2.341,1.212 -4.507,0.878 -6.5,-1c0.064,-3.833 0.73,-7.5 2,-11c-2.917,4.166 -5.584,8.499 -8,13c-8.176,20.768 -2.676,25.268 16.5,13.5c5.167,-3.833 9.667,-8.333 13.5,-13.5c1.654,-9.296 4.321,-18.296 8,-27c5.139,-13.12 12.639,-24.62 22.5,-34.5c1.333,-0.667 2.667,-0.667 4,0c3.167,3.167 6.333,6.333 9.5,9.5c1.601,2.594 1.767,5.261 0.5,8c-1.369,-1.624 -3.036,-2.124 -5,-1.5c-4.095,3.704 -7.595,7.871 -10.5,12.5c-4.333,9.333 -8.667,18.667 -13,28c-2.261,5.225 -3.094,10.559 -2.5,16c4.237,-7.97 9.57,-15.136 16,-21.5c3.692,-2.159 7.192,-1.993 10.5,0.5c2.931,12.044 -0.569,21.71 -10.5,29c0.88,6.727 4.547,9.227 11,7.5c6.127,-4.294 11.794,-9.127 17,-14.5z" fill="#41b8ff"/><path d="M76,152c0.891,0.61 1.891,0.943 3,1c-0.073,1.527 0.5937,2.527 2,3c0.0649,7.024 -0.2684,14.024 -1,21c-1.0019,4.661 -2.3352,9.328 -4,14c-3.9107,13.155 -9.9107,25.155 -18,36c0.2087,-5.167 1.2087,-10.167 3,-15c4.375,-6.758 7.7084,-14.091 10,-22c0.7216,0.418 1.2216,1.084 1.5,2c2.6223,-4.794 3.4557,-9.794 2.5,-15c0.7395,-8.312 1.0728,-16.646 1,-25z" fill="#fb2a24"/><path d="M246,156c5.513,-0.59 8.847,1.744 10,7c-2.48,14.3 -8.313,26.966 -17.5,38c-1.286,2.905 -2.286,5.905 -3,9c-0.832,8.021 -0.665,16.021 0.5,24c1.546,3.88 3.88,7.214 7,10c1.559,-0.574 3.059,-1.24 4.5,-2c5.53,-11.514 11.864,-22.514 19,-33c0.667,6.25 -1.667,11.583 -7,16c-0.837,1.851 -1.671,3.684 -2.5,5.5c3.667,0.667 7.333,0.667 11,0c1.431,-0.465 2.597,-1.299 3.5,-2.5c1.781,-3.895 3.281,-7.895 4.5,-12c-1.463,-2.131 -2.463,-4.465 -3,-7c0.192,-2.077 0.692,-4.077 1.5,-6c2.667,-0.667 5.333,-1.333 8,-2c3.327,-5.976 5.494,-12.309 6.5,-19c-2.948,0.277 -5.781,-0.056 -8.5,-1c-0.667,-3.667 -0.667,-7.333 0,-11c1.152,-2.149 2.652,-3.982 4.5,-5.5c15.185,-3.192 30.518,-4.192 46,-3c6.628,3.091 9.128,8.257 7.5,15.5c-1.667,3 -3.333,6 -5,9c-6.475,5.147 -13.309,9.647 -20.5,13.5c19.352,4.717 23.186,15.217 11.5,31.5c-10.834,8.514 -23,13.181 -36.5,14c-5.481,0.518 -10.814,1.685 -16,3.5c-0.653,2.652 -2.319,4.152 -5,4.5c-6.484,-3.511 -13.318,-3.845 -20.5,-1c-0.945,-0.405 -1.612,-1.072 -2,-2c-9.614,7.473 -16.947,5.473 -22,-6c-2.122,-5.154 -3.622,-10.487 -4.5,-16c-4.181,10.724 -11.014,12.724 -20.5,6c-2.184,-3.366 -3.517,-7.033 -4,-11c-3.201,3.536 -6.701,6.703 -10.5,9.5c-10.117,4.181 -17.284,1.348 -21.5,-8.5c-0.17,-6.028 -0.67,-12.028 -1.5,-18c-6.965,7.255 -13.465,14.922 -19.5,23c-1.505,3.85 -3.005,7.683 -4.5,11.5c-4.628,1.697 -9.295,1.864 -14,0.5c-1.396,-1.352 -2.063,-3.019 -2,-5c0.521,-2.024 0.688,-4.024 0.5,-6c-7.87,8.28 -16.203,8.947 -25,2c-2.654,-5.889 -2.987,-11.889 -1,-18c2.662,-5.191 5.162,-10.524 7.5,-16c2.925,-2.852 6.258,-3.518 10,-2c0.333,0.833 0.667,1.667 1,2.5c-3.139,6.705 -5.139,13.705 -6,21c-0.061,9.926 3.939,11.926 12,6c1.859,-1.558 3.359,-3.391 4.5,-5.5c5.644,-12.621 11.811,-24.954 18.5,-37c7.618,3.239 10.118,8.905 7.5,17c-2.18,5.688 -4.347,11.355 -6.5,17c1.052,0.149 2.052,-0.017 3,-0.5c5.301,-6.302 10.968,-12.302 17,-18c3.817,-1.023 7.317,-0.523 10.5,1.5c0.167,1.833 0.333,3.667 0.5,5.5c-1.755,7.404 -2.255,14.904 -1.5,22.5c2.498,1.098 4.998,0.932 7.5,-0.5c9.425,-5.423 15.925,-13.256 19.5,-23.5c3.921,-6.585 9.588,-10.918 17,-13c2.553,0.723 4.72,2.056 6.5,4c2.803,-9.239 6.303,-18.239 10.5,-27c3.403,-4.905 7.57,-8.905 12.5,-12z" fill="#40b8ff"/><path d="M250,159c1,0 2,0 3,0c0.321,14.012 -4.346,26.012 -14,36c-0.333,-0.667 -0.667,-1.333 -1,-2c2.383,-12.06 6.383,-23.393 12,-34z" fill="#f9fcff"/><path d="M23,168c-4.8074,19.283 -9.9741,38.616 -15.5,58c-0.7554,3.755 -0.5887,7.422 0.5,11c-1.4305,0.079 -2.7638,-0.254 -4,-1c-1.1623,-4.967 -1.3289,-9.967 -0.5,-15c3.6667,-13 7.3333,-26 11,-39c1.2883,-5.273 2.1216,-10.606 2.5,-16c2.5821,-0.475 4.5821,0.192 6,2z" fill="#fd2821"/><path d="M23,168c3.1259,-0.015 5.7926,0.985 8,3c-2,0 -4,0 -6,0c-0.3784,5.394 -1.2117,10.727 -2.5,16c-3.6667,13 -7.3333,26 -11,39c-0.499,4.321 -0.6657,8.654 -0.5,13c-1.5269,0.073 -2.5269,-0.594 -3,-2c-1.0887,-3.578 -1.2554,-7.245 -0.5,-11c5.5259,-19.384 10.6926,-38.717 15.5,-58z" fill="#6dd5db"/><path d="M84,164c0,2 0,4 0,6c-0.9972,0.03 -1.6639,-0.47 -2,-1.5c0.399,-1.728 1.0657,-3.228 2,-4.5z" fill="#a18c8e"/><path d="M54,175c-0.9959,-0.086 -1.8292,0.248 -2.5,1c-5.7612,16.193 -13.5946,31.193 -23.5,45c-1.2,-3.198 -1.2,-6.531 0,-10c7.9167,-10.5 13.7501,-22.167 17.5,-35c2.9611,-4.363 6.7944,-5.197 11.5,-2.5c-1.2375,0.232 -2.2375,0.732 -3,1.5z" fill="#fc2621"/><path d="M54,175c2.6873,-0.164 5.354,0.003 8,0.5c1.6193,0.236 2.6193,1.069 3,2.5c-3.5707,-1.625 -6.904,-1.291 -10,1c-5.7698,16.374 -13.7698,31.541 -24,45.5c-3.4361,0.737 -4.4361,-0.43 -3,-3.5c9.9054,-13.807 17.7388,-28.807 23.5,-45c0.6708,-0.752 1.5041,-1.086 2.5,-1z" fill="#65d9e0"/><path d="M315,177c5.43,-0.339 10.764,0.161 16,1.5c1.247,1.494 1.247,2.994 0,4.5c-12.425,7.478 -25.758,12.811 -40,16c1.078,-7.655 4.411,-14.155 10,-19.5c4.739,-1.051 9.406,-1.885 14,-2.5z" fill="#fbfdff"/><path d="M109,179c7.487,-0.696 8.82,1.804 4,7.5c-2.24,0.977 -4.573,1.477 -7,1.5c0.713,-3.094 1.713,-6.094 3,-9z" fill="#4abaff"/><path d="M80,177c1.1165,5.561 0.2831,10.894 -2.5,16c-0.2784,-0.916 -0.7784,-1.582 -1.5,-2c1.6648,-4.672 2.9981,-9.339 4,-14z" fill="#a19999"/><path d="M75,177c0.9557,5.206 0.1223,10.206 -2.5,15c-0.2784,-0.916 -0.7784,-1.582 -1.5,-2c1.3637,-4.418 2.697,-8.751 4,-13z" fill="#ff857f"/><path d="M81,156c1,0 2,0 3,0c0,2.667 0,5.333 0,8c-0.9343,1.272 -1.601,2.772 -2,4.5c0.3361,1.03 1.0028,1.53 2,1.5c-0.5166,7.1 -1.6833,14.1 -3.5,21c-4.1996,15.736 -11.5329,29.736 -22,42c-1.7998,-1.865 -1.9664,-3.865 -0.5,-6c8.0893,-10.845 14.0893,-22.845 18,-36c0.7216,0.418 1.2216,1.084 1.5,2c2.7831,-5.106 3.6165,-10.439 2.5,-16c0.7316,-6.976 1.0649,-13.976 1,-21z" fill="#62dae1"/><path d="M464,203c1.086,0.12 1.753,0.787 2,2c-1.24,5.649 -3.907,10.482 -8,14.5c-1.333,0.667 -2.667,0.667 -4,0c2.703,-5.911 6.037,-11.411 10,-16.5z" fill="#f5fbff"/><path d="M217,209c1.193,0.47 1.86,1.47 2,3c1.105,8.62 -1.895,15.287 -9,20c-1.895,-2.367 -2.395,-5.034 -1.5,-8c2.339,-5.352 5.172,-10.352 8.5,-15z" fill="#f8fcff"/><path d="M295,212c8.007,-0.166 16.007,0 24,0.5c1.35,1.718 2.517,3.552 3.5,5.5c0.836,-3.441 1.669,-3.608 2.5,-0.5c-1.46,0.804 -2.294,2.637 -2.5,5.5c-13.649,5.296 -27.815,7.963 -42.5,8c-0.07,-6.295 1.93,-11.795 6,-16.5c3.178,-0.66 6.178,-1.493 9,-2.5z" fill="#fbfdff"/><path d="M48,238c-0.9584,-0.453 -1.7917,-1.119 -2.5,-2c-0.4974,-2.646 -0.6641,-5.313 -0.5,-8c0.5076,-1.733 1.341,-2.066 2.5,-1c0.4986,3.652 0.6653,7.318 0.5,11z" fill="#5fdce3"/><path d="M45,228c-0.1641,2.687 0.0026,5.354 0.5,8c0.7083,0.881 1.5416,1.547 2.5,2c0,0.333 0,0.667 0,1c-4.0371,-0.704 -6.3705,-3.037 -7,-7c1,-1.667 2.3333,-3 4,-4z" fill="#fa2d27"/></g></g></svg>