<?xml version="1.0" encoding="UTF-8"?>
<!DOCTYPE svg PUBLIC "-//W3C//DTD SVG 1.1//EN" "http://www.w3.org/Graphics/SVG/1.1/DTD/svg11.dtd">
<svg xmlns="http://www.w3.org/2000/svg" version="1.1" width="500px" height="500px" style="shape-rendering:geometricPrecision; text-rendering:geometricPrecision; image-rendering:optimizeQuality; fill-rule:evenodd; clip-rule:evenodd" xmlns:xlink="http://www.w3.org/1999/xlink">
<g><path style="opacity:1" fill="#fefefe" d="M -0.5,-0.5 C 166.167,-0.5 332.833,-0.5 499.5,-0.5C 499.5,97.8333 499.5,196.167 499.5,294.5C 494.294,299.873 488.627,304.706 482.5,309C 476.047,310.727 472.38,308.227 471.5,301.5C 481.431,294.21 484.931,284.544 482,272.5C 478.692,270.007 475.192,269.841 471.5,272C 465.07,278.364 459.737,285.53 455.5,293.5C 454.906,288.059 455.739,282.725 458,277.5C 462.333,268.167 466.667,258.833 471,249.5C 473.905,244.871 477.405,240.704 481.5,237C 483.464,236.376 485.131,236.876 486.5,238.5C 487.767,235.761 487.601,233.094 486,230.5C 482.833,227.333 479.667,224.167 476.5,221C 475.167,220.333 473.833,220.333 472.5,221C 462.639,230.88 455.139,242.38 450,255.5C 446.321,264.204 443.654,273.204 442,282.5C 438.167,287.667 433.667,292.167 428.5,296C 409.324,307.768 403.824,303.268 412,282.5C 414.416,277.999 417.083,273.666 420,269.5C 418.73,273 418.064,276.667 418,280.5C 419.993,282.378 422.159,282.712 424.5,281.5C 427.796,274.76 428.462,267.76 426.5,260.5C 421.519,257.913 416.519,258.08 411.5,261C 403.328,268.179 397.828,277.013 395,287.5C 391.374,291.497 387.04,293.164 382,292.5C 381.833,291.333 381.667,290.167 381.5,289C 382.796,285.59 383.296,282.09 383,278.5C 382.196,277.196 381.029,276.529 379.5,276.5C 375.637,281.012 371.637,285.512 367.5,290C 366.517,290.591 365.85,290.257 365.5,289C 369.56,281.603 375.06,275.437 382,270.5C 382.92,267.692 382.087,265.525 379.5,264C 375.738,261.844 371.738,261.177 367.5,262C 361.06,266.718 355.894,272.552 352,279.5C 349.315,289.185 352.981,295.185 363,297.5C 366.822,296.506 370.322,294.839 373.5,292.5C 381.245,299.031 388.745,298.698 396,291.5C 396.537,300.707 401.37,306.207 410.5,308C 424.739,309.131 435.239,303.298 442,290.5C 442.333,295.167 442.667,299.833 443,304.5C 445.881,310.785 450.381,312.118 456.5,308.5C 457.747,305.671 459.247,303.005 461,300.5C 463.416,305.001 466.083,309.334 469,313.5C 473.603,317.222 478.436,317.389 483.5,314C 489.568,310.764 494.902,306.597 499.5,301.5C 499.5,367.5 499.5,433.5 499.5,499.5C 332.833,499.5 166.167,499.5 -0.5,499.5C -0.5,332.833 -0.5,166.167 -0.5,-0.5 Z"/></g>
<g><path style="opacity:1" fill="#fd3a31" d="M 87.5,215.5 C 86.1201,215.962 85.4534,216.962 85.5,218.5C 85.8457,219.849 86.179,221.183 86.5,222.5C 82.6314,222.129 80.6314,219.963 80.5,216C 80.6667,214.5 81.5,213.667 83,213.5C 84.7275,213.899 86.2275,214.566 87.5,215.5 Z"/></g>
<g><path style="opacity:1" fill="#6dd5dc" d="M 87.5,215.5 C 90.054,216.606 92.7206,217.439 95.5,218C 96.9423,218.377 97.9423,219.21 98.5,220.5C 95.5752,219.361 92.5752,218.861 89.5,219C 88.2721,220.49 88.2721,221.99 89.5,223.5C 88.391,223.443 87.391,223.11 86.5,222.5C 86.179,221.183 85.8457,219.849 85.5,218.5C 85.4534,216.962 86.1201,215.962 87.5,215.5 Z"/></g>
<g><path style="opacity:1" fill="#3cb6fe" d="M 98.5,220.5 C 103.768,224.615 107.268,229.948 109,236.5C 109.87,244.897 109.537,253.23 108,261.5C 101.912,274.053 95.2452,286.387 88,298.5C 84.2127,303.956 80.046,309.123 75.5,314C 68.7732,316.643 63.1065,315.143 58.5,309.5C 58.5,309.167 58.5,308.833 58.5,308.5C 58.6653,304.818 58.4986,301.152 58,297.5C 56.841,296.434 56.0076,296.767 55.5,298.5C 53.8333,299.5 52.5,300.833 51.5,302.5C 43.907,311.531 34.2403,314.697 22.5,312C 21.7476,311.329 21.4142,310.496 21.5,309.5C 21.3343,305.154 21.501,300.821 22,296.5C 25.6667,283.5 29.3333,270.5 33,257.5C 34.2883,252.227 35.1216,246.894 35.5,241.5C 37.5,241.5 39.5,241.5 41.5,241.5C 42.5155,250.587 41.6822,259.587 39,268.5C 38.501,272.821 38.3343,277.154 38.5,281.5C 37.3,284.969 37.3,288.302 38.5,291.5C 37.0639,294.57 38.0639,295.737 41.5,295C 51.7302,281.041 59.7302,265.874 65.5,249.5C 68.596,247.209 71.9293,246.875 75.5,248.5C 76.7206,249.028 77.8873,249.695 79,250.5C 79.6667,253.833 79.6667,257.167 79,260.5C 75.882,267.647 73.382,274.98 71.5,282.5C 69.7087,287.333 68.7087,292.333 68.5,297.5C 67.0336,299.635 67.2002,301.635 69,303.5C 79.4671,291.236 86.8004,277.236 91,261.5C 92.8167,254.6 93.9834,247.6 94.5,240.5C 94.5,238.5 94.5,236.5 94.5,234.5C 94.5,231.833 94.5,229.167 94.5,226.5C 93.5,226.5 92.5,226.5 91.5,226.5C 90.0937,226.027 89.427,225.027 89.5,223.5C 88.2721,221.99 88.2721,220.49 89.5,219C 92.5752,218.861 95.5752,219.361 98.5,220.5 Z"/></g>
<g><path style="opacity:1" fill="#41b8ff" d="M 499.5,294.5 C 499.5,296.833 499.5,299.167 499.5,301.5C 494.902,306.597 489.568,310.764 483.5,314C 478.436,317.389 473.603,317.222 469,313.5C 466.083,309.334 463.416,305.001 461,300.5C 459.247,303.005 457.747,305.671 456.5,308.5C 450.381,312.118 445.881,310.785 443,304.5C 442.667,299.833 442.333,295.167 442,290.5C 435.239,303.298 424.739,309.131 410.5,308C 401.37,306.207 396.537,300.707 396,291.5C 388.745,298.698 381.245,299.031 373.5,292.5C 370.322,294.839 366.822,296.506 363,297.5C 352.981,295.185 349.315,289.185 352,279.5C 355.894,272.552 361.06,266.718 367.5,262C 371.738,261.177 375.738,261.844 379.5,264C 382.087,265.525 382.92,267.692 382,270.5C 375.06,275.437 369.56,281.603 365.5,289C 365.85,290.257 366.517,290.591 367.5,290C 371.637,285.512 375.637,281.012 379.5,276.5C 381.029,276.529 382.196,277.196 383,278.5C 383.296,282.09 382.796,285.59 381.5,289C 381.667,290.167 381.833,291.333 382,292.5C 387.04,293.164 391.374,291.497 395,287.5C 397.828,277.013 403.328,268.179 411.5,261C 416.519,258.08 421.519,257.913 426.5,260.5C 428.462,267.76 427.796,274.76 424.5,281.5C 422.159,282.712 419.993,282.378 418,280.5C 418.064,276.667 418.73,273 420,269.5C 417.083,273.666 414.416,277.999 412,282.5C 403.824,303.268 409.324,307.768 428.5,296C 433.667,292.167 438.167,287.667 442,282.5C 443.654,273.204 446.321,264.204 450,255.5C 455.139,242.38 462.639,230.88 472.5,221C 473.833,220.333 475.167,220.333 476.5,221C 479.667,224.167 482.833,227.333 486,230.5C 487.601,233.094 487.767,235.761 486.5,238.5C 485.131,236.876 483.464,236.376 481.5,237C 477.405,240.704 473.905,244.871 471,249.5C 466.667,258.833 462.333,268.167 458,277.5C 455.739,282.725 454.906,288.059 455.5,293.5C 459.737,285.53 465.07,278.364 471.5,272C 475.192,269.841 478.692,270.007 482,272.5C 484.931,284.544 481.431,294.21 471.5,301.5C 472.38,308.227 476.047,310.727 482.5,309C 488.627,304.706 494.294,299.873 499.5,294.5 Z"/></g>
<g><path style="opacity:1" fill="#fb2a24" d="M 86.5,222.5 C 87.391,223.11 88.391,223.443 89.5,223.5C 89.427,225.027 90.0937,226.027 91.5,226.5C 91.5649,233.524 91.2316,240.524 90.5,247.5C 89.4981,252.161 88.1648,256.828 86.5,261.5C 82.5893,274.655 76.5893,286.655 68.5,297.5C 68.7087,292.333 69.7087,287.333 71.5,282.5C 75.875,275.742 79.2084,268.409 81.5,260.5C 82.2216,260.918 82.7216,261.584 83,262.5C 85.6223,257.706 86.4557,252.706 85.5,247.5C 86.2395,239.188 86.5728,230.854 86.5,222.5 Z"/></g>
<g><path style="opacity:1" fill="#40b8ff" d="M 256.5,226.5 C 262.013,225.91 265.347,228.244 266.5,233.5C 264.02,247.8 258.187,260.466 249,271.5C 247.714,274.405 246.714,277.405 246,280.5C 245.168,288.521 245.335,296.521 246.5,304.5C 248.046,308.38 250.38,311.714 253.5,314.5C 255.059,313.926 256.559,313.26 258,312.5C 263.53,300.986 269.864,289.986 277,279.5C 277.667,285.75 275.333,291.083 270,295.5C 269.163,297.351 268.329,299.184 267.5,301C 271.167,301.667 274.833,301.667 278.5,301C 279.931,300.535 281.097,299.701 282,298.5C 283.781,294.605 285.281,290.605 286.5,286.5C 285.037,284.369 284.037,282.035 283.5,279.5C 283.692,277.423 284.192,275.423 285,273.5C 287.667,272.833 290.333,272.167 293,271.5C 296.327,265.524 298.494,259.191 299.5,252.5C 296.552,252.777 293.719,252.444 291,251.5C 290.333,247.833 290.333,244.167 291,240.5C 292.152,238.351 293.652,236.518 295.5,235C 310.685,231.808 326.018,230.808 341.5,232C 348.128,235.091 350.628,240.257 349,247.5C 347.333,250.5 345.667,253.5 344,256.5C 337.525,261.647 330.691,266.147 323.5,270C 342.852,274.717 346.686,285.217 335,301.5C 324.166,310.014 312,314.681 298.5,315.5C 293.019,316.018 287.686,317.185 282.5,319C 281.847,321.652 280.181,323.152 277.5,323.5C 271.016,319.989 264.182,319.655 257,322.5C 256.055,322.095 255.388,321.428 255,320.5C 245.386,327.973 238.053,325.973 233,314.5C 230.878,309.346 229.378,304.013 228.5,298.5C 224.319,309.224 217.486,311.224 208,304.5C 205.816,301.134 204.483,297.467 204,293.5C 200.799,297.036 197.299,300.203 193.5,303C 183.383,307.181 176.216,304.348 172,294.5C 171.83,288.472 171.33,282.472 170.5,276.5C 163.535,283.755 157.035,291.422 151,299.5C 149.495,303.35 147.995,307.183 146.5,311C 141.872,312.697 137.205,312.864 132.5,311.5C 131.104,310.148 130.437,308.481 130.5,306.5C 131.021,304.476 131.188,302.476 131,300.5C 123.13,308.78 114.797,309.447 106,302.5C 103.346,296.611 103.013,290.611 105,284.5C 107.662,279.309 110.162,273.976 112.5,268.5C 115.425,265.648 118.758,264.982 122.5,266.5C 122.833,267.333 123.167,268.167 123.5,269C 120.361,275.705 118.361,282.705 117.5,290C 117.439,299.926 121.439,301.926 129.5,296C 131.359,294.442 132.859,292.609 134,290.5C 139.644,277.879 145.811,265.546 152.5,253.5C 160.118,256.739 162.618,262.405 160,270.5C 157.82,276.188 155.653,281.855 153.5,287.5C 154.552,287.649 155.552,287.483 156.5,287C 161.801,280.698 167.468,274.698 173.5,269C 177.317,267.977 180.817,268.477 184,270.5C 184.167,272.333 184.333,274.167 184.5,276C 182.745,283.404 182.245,290.904 183,298.5C 185.498,299.598 187.998,299.432 190.5,298C 199.925,292.577 206.425,284.744 210,274.5C 213.921,267.915 219.588,263.582 227,261.5C 229.553,262.223 231.72,263.556 233.5,265.5C 236.303,256.261 239.803,247.261 244,238.5C 247.403,233.595 251.57,229.595 256.5,226.5 Z"/></g>
<g><path style="opacity:1" fill="#f9fcff" d="M 260.5,229.5 C 261.5,229.5 262.5,229.5 263.5,229.5C 263.821,243.512 259.154,255.512 249.5,265.5C 249.167,264.833 248.833,264.167 248.5,263.5C 250.883,251.44 254.883,240.107 260.5,229.5 Z"/></g>
<g><path style="opacity:1" fill="#fd2821" d="M 33.5,238.5 C 28.6926,257.783 23.5259,277.116 18,296.5C 17.2446,300.255 17.4113,303.922 18.5,307.5C 17.0695,307.579 15.7362,307.246 14.5,306.5C 13.3377,301.533 13.1711,296.533 14,291.5C 17.6667,278.5 21.3333,265.5 25,252.5C 26.2883,247.227 27.1216,241.894 27.5,236.5C 30.0821,236.025 32.0821,236.692 33.5,238.5 Z"/></g>
<g><path style="opacity:1" fill="#6dd5db" d="M 33.5,238.5 C 36.6259,238.485 39.2926,239.485 41.5,241.5C 39.5,241.5 37.5,241.5 35.5,241.5C 35.1216,246.894 34.2883,252.227 33,257.5C 29.3333,270.5 25.6667,283.5 22,296.5C 21.501,300.821 21.3343,305.154 21.5,309.5C 19.9731,309.573 18.9731,308.906 18.5,307.5C 17.4113,303.922 17.2446,300.255 18,296.5C 23.5259,277.116 28.6926,257.783 33.5,238.5 Z"/></g>
<g><path style="opacity:1" fill="#a18c8e" d="M 94.5,234.5 C 94.5,236.5 94.5,238.5 94.5,240.5C 93.5028,240.53 92.8361,240.03 92.5,239C 92.899,237.272 93.5657,235.772 94.5,234.5 Z"/></g>
<g><path style="opacity:1" fill="#fc2621" d="M 64.5,245.5 C 63.5041,245.414 62.6708,245.748 62,246.5C 56.2388,262.693 48.4054,277.693 38.5,291.5C 37.3,288.302 37.3,284.969 38.5,281.5C 46.4167,271 52.2501,259.333 56,246.5C 58.9611,242.137 62.7944,241.303 67.5,244C 66.2625,244.232 65.2625,244.732 64.5,245.5 Z"/></g>
<g><path style="opacity:1" fill="#65d9e0" d="M 64.5,245.5 C 67.1873,245.336 69.854,245.503 72.5,246C 74.1193,246.236 75.1193,247.069 75.5,248.5C 71.9293,246.875 68.596,247.209 65.5,249.5C 59.7302,265.874 51.7302,281.041 41.5,295C 38.0639,295.737 37.0639,294.57 38.5,291.5C 48.4054,277.693 56.2388,262.693 62,246.5C 62.6708,245.748 63.5041,245.414 64.5,245.5 Z"/></g>
<g><path style="opacity:1" fill="#fbfdff" d="M 325.5,247.5 C 330.93,247.161 336.264,247.661 341.5,249C 342.747,250.494 342.747,251.994 341.5,253.5C 329.075,260.978 315.742,266.311 301.5,269.5C 302.578,261.845 305.911,255.345 311.5,250C 316.239,248.949 320.906,248.115 325.5,247.5 Z"/></g>
<g><path style="opacity:1" fill="#4abaff" d="M 119.5,249.5 C 126.987,248.804 128.32,251.304 123.5,257C 121.26,257.977 118.927,258.477 116.5,258.5C 117.213,255.406 118.213,252.406 119.5,249.5 Z"/></g>
<g><path style="opacity:1" fill="#a19999" d="M 90.5,247.5 C 91.6165,253.061 90.7831,258.394 88,263.5C 87.7216,262.584 87.2216,261.918 86.5,261.5C 88.1648,256.828 89.4981,252.161 90.5,247.5 Z"/></g>
<g><path style="opacity:1" fill="#ff857f" d="M 85.5,247.5 C 86.4557,252.706 85.6223,257.706 83,262.5C 82.7216,261.584 82.2216,260.918 81.5,260.5C 82.8637,256.082 84.197,251.749 85.5,247.5 Z"/></g>
<g><path style="opacity:1" fill="#62dae1" d="M 91.5,226.5 C 92.5,226.5 93.5,226.5 94.5,226.5C 94.5,229.167 94.5,231.833 94.5,234.5C 93.5657,235.772 92.899,237.272 92.5,239C 92.8361,240.03 93.5028,240.53 94.5,240.5C 93.9834,247.6 92.8167,254.6 91,261.5C 86.8004,277.236 79.4671,291.236 69,303.5C 67.2002,301.635 67.0336,299.635 68.5,297.5C 76.5893,286.655 82.5893,274.655 86.5,261.5C 87.2216,261.918 87.7216,262.584 88,263.5C 90.7831,258.394 91.6165,253.061 90.5,247.5C 91.2316,240.524 91.5649,233.524 91.5,226.5 Z"/></g>
<g><path style="opacity:1" fill="#f5fbff" d="M 474.5,273.5 C 475.586,273.62 476.253,274.287 476.5,275.5C 475.26,281.149 472.593,285.982 468.5,290C 467.167,290.667 465.833,290.667 464.5,290C 467.203,284.089 470.537,278.589 474.5,273.5 Z"/></g>
<g><path style="opacity:1" fill="#f8fcff" d="M 227.5,279.5 C 228.693,279.97 229.36,280.97 229.5,282.5C 230.605,291.12 227.605,297.787 220.5,302.5C 218.605,300.133 218.105,297.466 219,294.5C 221.339,289.148 224.172,284.148 227.5,279.5 Z"/></g>
<g><path style="opacity:1" fill="#fbfdff" d="M 305.5,282.5 C 313.507,282.334 321.507,282.5 329.5,283C 330.85,284.718 332.017,286.552 333,288.5C 333.836,285.059 334.669,284.892 335.5,288C 334.04,288.804 333.206,290.637 333,293.5C 319.351,298.796 305.185,301.463 290.5,301.5C 290.43,295.205 292.43,289.705 296.5,285C 299.678,284.34 302.678,283.507 305.5,282.5 Z"/></g>
<g><path style="opacity:1" fill="#5fdce3" d="M 58.5,308.5 C 57.5416,308.047 56.7083,307.381 56,306.5C 55.5026,303.854 55.3359,301.187 55.5,298.5C 56.0076,296.767 56.841,296.434 58,297.5C 58.4986,301.152 58.6653,304.818 58.5,308.5 Z"/></g>
<g><path style="opacity:1" fill="#fa2d27" d="M 55.5,298.5 C 55.3359,301.187 55.5026,303.854 56,306.5C 56.7083,307.381 57.5416,308.047 58.5,308.5C 58.5,308.833 58.5,309.167 58.5,309.5C 54.4629,308.796 52.1295,306.463 51.5,302.5C 52.5,300.833 53.8333,299.5 55.5,298.5 Z"/></g>
</svg>
